<?xml version="1.0" standalone="no"?>
<!DOCTYPE svg PUBLIC "-//W3C//DTD SVG 20010904//EN"
 "http://www.w3.org/TR/2001/REC-SVG-20010904/DTD/svg10.dtd">
<svg version="1.0" xmlns="http://www.w3.org/2000/svg"
 width="1210.000000pt" height="1210.000000pt" viewBox="0 0 1210.000000 1210.000000"
 preserveAspectRatio="xMidYMid meet">

<g transform="translate(0.000000,1210.000000) scale(0.100000,-0.100000)"
fill="#000000" stroke="none">
<path d="M5650 12084 c-523 -45 -883 -110 -1330 -240 -340 -100 -674 -234
-1030 -415 -234 -119 -506 -278 -503 -294 1 -6 703 -464 1560 -1018 1211 -784
1603 -1033 1762 -1119 361 -194 651 -360 1401 -796 561 -327 712 -413 717
-408 3 2 9 267 14 588 5 321 15 853 24 1183 17 673 36 1610 38 1904 l2 194
-145 54 c-377 141 -818 254 -1215 312 -321 47 -417 53 -840 56 -225 1 -430 1
-455 -1z"/>
<path d="M8746 11177 c-4 -155 -11 -493 -16 -752 -5 -258 -14 -643 -20 -855
-25 -920 -31 -1243 -40 -2425 -5 -687 -14 -1448 -19 -1690 -6 -241 -9 -440 -8
-442 2 -1 333 166 737 371 404 206 1172 594 1705 864 888 449 970 493 973 517
4 34 -31 270 -69 460 -317 1589 -1249 2975 -2604 3870 -184 122 -381 238 -535
315 l-98 49 -6 -282z"/>
<path d="M2292 10791 c-501 -399 -933 -867 -1279 -1386 -550 -824 -875 -1729
-989 -2755 -17 -148 -33 -940 -20 -940 8 0 606 317 1586 840 2258 1205 2092
1115 2660 1440 151 86 340 193 420 238 80 44 273 155 430 247 157 91 340 194
407 228 68 34 123 65 123 68 0 4 -170 116 -377 249 -208 134 -907 586 -1553
1003 -646 418 -1205 780 -1242 803 l-68 44 -98 -79z"/>
<path d="M3135 6897 c-460 -249 -1088 -582 -2005 -1062 -459 -240 -892 -467
-961 -503 l-126 -66 19 -120 c255 -1698 1216 -3202 2653 -4151 230 -152 607
-366 621 -353 2 3 8 249 14 549 5 299 17 688 25 864 8 176 15 409 15 517 0
108 9 470 20 805 16 481 21 892 24 1963 3 745 8 1437 12 1538 4 107 3 182 -2
182 -5 -1 -144 -74 -309 -163z"/>
<path d="M11555 5972 c-1100 -567 -1977 -1015 -2705 -1384 -124 -63 -340 -179
-480 -260 -330 -188 -1097 -625 -1507 -858 -178 -100 -323 -186 -323 -190 0
-4 48 -39 108 -77 59 -39 436 -284 837 -545 687 -446 2186 -1417 2212 -1432
23 -13 351 263 587 494 1021 1000 1633 2269 1792 3720 14 132 32 732 23 787
-4 21 -45 2 -544 -255z"/>
<path d="M3861 3988 c-6 -167 -16 -388 -21 -493 -5 -104 -9 -314 -10 -465 0
-151 -7 -423 -15 -605 -9 -181 -20 -546 -25 -810 -5 -264 -14 -604 -20 -755
-5 -151 -11 -307 -13 -346 l-2 -72 180 -67 c484 -180 947 -287 1515 -352 224
-26 976 -26 1200 0 812 92 1458 282 2150 633 177 89 458 248 482 272 6 6
-3166 2068 -3371 2191 -31 19 -423 244 -871 501 -448 257 -893 513 -989 569
-96 55 -175 101 -175 101 -1 0 -8 -136 -15 -302z"/>
</g>
</svg>
